<?xml version="1.0" standalone="no"?>
<!DOCTYPE svg PUBLIC "-//W3C//DTD SVG 20010904//EN"
 "http://www.w3.org/TR/2001/REC-SVG-20010904/DTD/svg10.dtd">
<svg version="1.0" xmlns="http://www.w3.org/2000/svg"
 width="1008.000000pt" height="1008.000000pt" viewBox="0 0 1008.000000 1008.000000"
 preserveAspectRatio="xMidYMid meet">
<metadata>
Created by potrace 1.14, written by Peter Selinger 2001-2017
</metadata>
<g transform="translate(0.000000,1008.000000) scale(0.100000,-0.100000)"
fill="#000000" stroke="none">
<path d="M6483 10059 c-18 -12 -33 -24 -33 -27 0 -4 -13 -21 -28 -38 -15 -17
-47 -55 -72 -85 -25 -29 -97 -114 -160 -189 -63 -74 -122 -143 -130 -154 -8
-10 -19 -23 -25 -30 -18 -20 -120 -140 -137 -161 -9 -11 -47 -56 -85 -101 -37
-44 -88 -104 -113 -134 -25 -29 -57 -67 -71 -84 -24 -27 -52 -60 -124 -147
-29 -35 -143 -170 -168 -199 -12 -14 -37 -43 -55 -65 -18 -22 -51 -60 -72 -85
-21 -25 -57 -67 -80 -95 -45 -54 -65 -77 -120 -141 -19 -22 -50 -59 -68 -82
-19 -22 -44 -52 -55 -65 -12 -13 -38 -43 -57 -67 -19 -24 -40 -48 -45 -54 -6
-6 -33 -38 -60 -71 -28 -33 -62 -73 -76 -90 -31 -35 -89 -104 -141 -166 -20
-24 -46 -55 -58 -69 -12 -14 -39 -45 -59 -70 -20 -25 -41 -49 -47 -55 -6 -5
-69 -80 -140 -165 -71 -85 -131 -157 -135 -160 -3 -3 -29 -34 -58 -70 -30 -36
-57 -67 -60 -70 -6 -4 -71 -83 -111 -134 -8 -10 -22 -26 -31 -35 -8 -9 -49
-56 -90 -106 -41 -49 -83 -100 -94 -112 -11 -12 -27 -30 -35 -39 -8 -10 -30
-36 -50 -59 -19 -23 -53 -63 -75 -90 -22 -27 -44 -53 -50 -59 -5 -6 -36 -43
-68 -81 -68 -81 -138 -163 -152 -179 -6 -6 -30 -36 -55 -66 -24 -30 -53 -62
-62 -71 -10 -9 -18 -19 -18 -22 0 -3 -12 -19 -26 -34 -14 -15 -40 -45 -58 -66
-17 -22 -39 -49 -50 -60 -10 -12 -35 -42 -55 -67 -20 -24 -43 -51 -51 -60 -8
-9 -33 -38 -55 -65 -22 -26 -57 -67 -77 -89 -21 -23 -40 -49 -44 -58 -3 -10
-12 -18 -20 -18 -8 0 -14 -4 -14 -9 0 -5 -6 -16 -12 -23 -45 -46 -109 -134
-114 -154 -10 -39 4 -89 34 -116 30 -28 40 -32 132 -58 36 -10 99 -28 140 -39
107 -31 183 -52 195 -55 6 -2 17 -5 25 -8 15 -6 123 -36 150 -43 8 -1 56 -15
105 -30 50 -14 97 -28 105 -30 21 -5 232 -64 375 -105 17 -5 71 -20 120 -34
317 -88 658 -186 666 -191 5 -4 2 -19 -6 -35 -9 -17 -15 -31 -15 -32 2 -5 -6
-28 -53 -158 -25 -69 -71 -195 -102 -280 -31 -85 -62 -171 -70 -190 -17 -45
-27 -72 -31 -85 -2 -5 -26 -73 -54 -150 -53 -144 -57 -155 -135 -365 -26 -69
-48 -132 -50 -140 -2 -8 -20 -58 -40 -110 -20 -52 -38 -99 -39 -105 -3 -11
-14 -40 -26 -70 -4 -11 -15 -42 -25 -70 -9 -27 -21 -59 -25 -70 -10 -23 -110
-295 -114 -310 -4 -13 -14 -41 -32 -85 -13 -33 -71 -193 -78 -215 -2 -5 -6
-17 -9 -25 -4 -8 -13 -33 -20 -55 -30 -84 -68 -191 -77 -210 -18 -43 -110
-300 -110 -308 0 -4 -9 -26 -19 -50 -11 -23 -35 -87 -54 -142 -20 -55 -72
-199 -117 -320 -45 -121 -82 -224 -83 -230 -2 -5 -5 -14 -8 -20 -7 -10 -43
-116 -44 -125 0 -3 -7 -24 -17 -45 -63 -151 -169 -461 -170 -494 0 -61 54
-111 123 -111 60 0 80 14 172 121 21 24 48 55 61 69 12 14 63 72 112 130 49
58 94 110 100 115 5 6 35 39 65 75 29 36 56 67 59 70 5 4 99 114 155 181 69
81 163 187 182 206 13 12 23 25 23 28 0 3 8 13 18 23 17 18 87 99 153 177 19
22 36 42 39 45 3 3 46 52 95 110 49 58 92 107 95 110 3 3 34 39 70 80 36 41
70 80 75 86 6 6 26 31 47 55 37 46 45 54 131 153 29 33 61 70 72 83 11 13 34
39 50 57 17 18 50 57 75 87 25 29 55 64 67 76 11 13 35 42 53 63 18 21 42 50
53 63 27 30 42 46 202 232 71 83 158 184 194 225 36 41 71 80 76 87 6 7 24 28
40 47 17 18 50 57 75 86 25 30 50 58 55 64 6 6 37 43 70 81 33 39 64 75 70 81
5 6 30 35 55 64 25 29 50 58 55 64 6 6 66 76 135 156 69 80 127 147 130 150 3
3 72 84 154 180 83 96 157 182 165 191 9 9 37 40 62 70 58 68 176 204 210 244
29 33 88 101 164 190 28 32 55 63 60 69 6 6 35 40 65 76 30 36 58 67 61 70 3
3 38 43 78 90 40 47 96 112 124 144 29 33 60 69 70 80 16 19 83 96 130 150 60
68 59 147 -2 198 -16 13 -115 49 -176 64 -17 4 -342 97 -400 114 -16 5 -63 18
-103 29 -40 11 -76 22 -81 25 -4 3 -21 8 -37 11 -39 8 -59 13 -59 15 0 1 -7 3
-15 5 -8 2 -46 13 -85 25 -38 12 -77 23 -85 25 -8 1 -55 15 -105 30 -49 14
-97 28 -105 30 -8 1 -42 11 -75 21 -33 10 -63 19 -67 20 -5 1 -9 2 -10 4 -2 1
-11 3 -21 5 -10 2 -41 10 -70 19 -95 28 -172 49 -172 46 0 -2 -9 2 -21 8 -11
6 -32 13 -46 16 -13 2 -69 18 -124 35 -55 17 -109 32 -122 34 -12 2 -27 8 -32
13 -6 6 22 118 76 304 47 162 87 303 89 313 2 9 6 21 9 25 3 5 7 19 10 33 3
13 28 103 56 199 28 96 53 184 55 194 3 11 11 40 20 66 9 26 17 55 19 66 3 10
30 107 61 214 32 107 58 200 59 205 2 6 13 43 25 84 13 41 24 81 26 90 5 18
53 187 110 381 20 69 38 136 41 149 3 13 9 32 15 43 5 10 7 18 5 18 -3 0 2 19
10 43 9 23 17 47 18 52 2 6 8 30 15 55 7 25 15 52 17 60 2 8 10 40 19 70 9 30
17 60 19 65 1 6 13 43 25 84 13 41 24 81 26 90 2 9 38 133 79 276 42 143 78
268 81 278 2 10 27 97 56 195 28 97 52 182 53 187 1 6 5 16 9 23 5 6 6 12 3
12 -3 0 1 19 9 41 32 89 10 166 -55 199 -50 25 -77 25 -117 -1z"/>
</g>
</svg>
